HIERARCHY
ROOT Hips
{
	OFFSET -3.958830 18.904000 13.208200
	CHANNELS 6 Xposition Yposition Zposition Zrotation Yrotation Xrotation 
	JOINT LHipJoint
	{
		OFFSET 0.000000 0.000000 0.000000
		CHANNELS 3 Zrotation Yrotation Xrotation
		JOINT LeftUpLeg
		{
			OFFSET 1.800000 -1.400000 0.085000
			CHANNELS 3 Zrotation Yrotation Xrotation
			JOINT LeftLeg
			{
				OFFSET 2.215000 -6.000000 0.000000
				CHANNELS 3 Zrotation Yrotation Xrotation
				JOINT LeftFoot
				{
					OFFSET 2.500000 -6.900000 0.000000
					CHANNELS 3 Zrotation Yrotation Xrotation
					JOINT LeftToeBase
					{
						OFFSET 0.200000 -0.500000 1.950000
						CHANNELS 3 Zrotation Yrotation Xrotation
						End Site
						{
							OFFSET 0.000000 0.000000 0.000000
						}
					}
				}
			}
		}
	}
	JOINT RHipJoint
	{
		OFFSET 0.000000 0.000000 0.000000
		CHANNELS 3 Zrotation Yrotation Xrotation
		JOINT RightUpLeg
		{
			OFFSET -1.800000 -1.400000 0.085000
			CHANNELS 3 Zrotation Yrotation Xrotation
			JOINT RightLeg
			{
				OFFSET -2.215000 -6.000000 0.000000
				CHANNELS 3 Zrotation Yrotation Xrotation
				JOINT RightFoot
				{
					OFFSET -2.500000 -6.900000 0.000000
					CHANNELS 3 Zrotation Yrotation Xrotation
					JOINT RightToeBase
					{
						OFFSET -0.200000 -0.500000 1.950000
						CHANNELS 3 Zrotation Yrotation Xrotation
						End Site
						{
							OFFSET 0.000000 0.000000 0.000000
						}
					}
				}
			}
		}
	}
	JOINT LowerBack
	{
		OFFSET 0.000000 0.000000 0.000000
		CHANNELS 3 Zrotation Yrotation Xrotation
		JOINT Spine
		{
			OFFSET -0.087000 1.940000 -0.288900
			CHANNELS 3 Zrotation Yrotation Xrotation
			JOINT Spine1
			{
				OFFSET 0.000000 1.950000 0.060000
				CHANNELS 3 Zrotation Yrotation Xrotation
				JOINT Neck
				{
					OFFSET 0.000000 0.000000 0.000000
					CHANNELS 3 Zrotation Yrotation Xrotation
					JOINT Neck1
					{
						OFFSET 0.000000 1.600000 0.340000
						CHANNELS 3 Zrotation Yrotation Xrotation
						JOINT Head
						{
							OFFSET 0.000000 1.667000 -0.240000
							CHANNELS 3 Zrotation Yrotation Xrotation
							End Site
							{
								OFFSET 0.000000 0.000000 0.000000
							}
						}
					}
				}
				JOINT LeftShoulder
				{
					OFFSET 0.000000 0.000000 0.000000
					CHANNELS 3 Zrotation Yrotation Xrotation
					JOINT LeftArm
					{
						OFFSET 2.700000 1.550000 -0.730000
						CHANNELS 3 Zrotation Yrotation Xrotation
						JOINT LeftForeArm
						{
							OFFSET 5.450000 0.000000 0.000000
							CHANNELS 3 Zrotation Yrotation Xrotation
							JOINT LeftHand
							{
								OFFSET 3.450000 0.000000 0.000000
								CHANNELS 3 Zrotation Yrotation Xrotation
								JOINT LeftHandIndex1
								{
									OFFSET 0.750000 0.000000 0.000000
									CHANNELS 3 Zrotation Yrotation Xrotation
									End Site
									{
										OFFSET 0.000000 0.000000 0.000000
									}
								}
							}
						}
					}
				}
				JOINT RightShoulder
				{
					OFFSET 0.000000 0.000000 0.000000
					CHANNELS 3 Zrotation Yrotation Xrotation
					JOINT RightArm
					{
						OFFSET -2.700000 1.550000 -0.730000
						CHANNELS 3 Zrotation Yrotation Xrotation
						JOINT RightForeArm
						{
							OFFSET -5.450000 0.000000 0.000000
							CHANNELS 3 Zrotation Yrotation Xrotation
							JOINT RightHand
							{
								OFFSET -3.450000 0.000000 0.000000
								CHANNELS 3 Zrotation Yrotation Xrotation
								JOINT RightHandIndex1
								{
									OFFSET -0.750000 0.000000 0.000000
									CHANNELS 3 Zrotation Yrotation Xrotation
									End Site
									{
										OFFSET 0.000000 0.000000 0.000000
									}
								}
							}
						}
					}
				}
			}
		}
	}
}
MOTION
Frames: 13
Frame Time: 0.016667
-0.832030 16.785910 -0.505850 1.156857 0.252689 -8.055827 -15.415941 11.734863 4.163425 -8.655201 -8.760450 -1.845095 -27.719454 22.425478 46.351946 1.208730 12.871433 0.571519 0.013940 -0.345380 -0.200560 18.472293 -8.184579 4.145425 -0.931724 8.862882 -42.168792 21.220219 -18.206763 47.188704 -1.719323 -8.725781 1.179553 -0.137950 0.809040 0.624570 -3.565312 -3.441348 -9.060353 7.945340 -10.660013 47.083333 -5.807487 -8.500553 5.439346 0.098209 -8.282172 -8.552033 -17.624847 2.477558 29.456197 4.373080 -2.461140 -38.182800 -7.923287 -13.480592 -0.362310 10.483135 -10.944242 -9.907738 86.281612 -54.948756 -48.859735 -3.780548 1.638143 1.236320 0.069720 0.273130 0.305210 8.005765 15.860345 6.796341 6.645015 -5.333245 -14.365679 -10.946610 77.643990 -9.037234 1.522616 -1.033394 -0.525700 0.740440 0.531930 -0.003930 
-0.828640 16.688510 -0.497170 1.124437 -0.931119 -8.423230 -15.457065 11.711331 4.129435 -8.611409 -8.423986 -1.469192 -28.293070 23.110574 46.517965 1.189815 13.037694 0.519776 0.057500 -0.298770 -0.147400 18.454243 -8.024469 4.268986 -0.808464 9.906399 -42.535130 21.826475 -18.804339 48.712173 -1.838962 -9.066626 1.074493 -0.090060 0.797780 0.607760 -3.484977 -3.561107 -9.095969 7.645251 -9.979128 48.570900 -5.201674 -7.913150 5.181793 -0.048105 -8.438307 -7.541115 -17.378420 1.701612 28.206827 4.163280 -2.763470 -41.179660 -8.560058 -12.463262 -1.185260 13.025820 -11.204761 -9.917990 85.737557 -53.866615 -47.184895 -3.784954 1.646392 1.281580 0.047640 0.294340 0.305080 8.850835 15.254689 5.851020 3.203558 -5.694578 -14.265261 -17.451275 79.621077 -14.138400 1.516444 -0.937836 -0.557760 0.797800 0.519850 -0.022890 
-0.823900 16.489220 -0.482060 0.938776 -3.425243 -9.100512 -15.529250 11.617644 4.080500 -8.293317 -7.961261 -1.225462 -29.941139 24.873728 47.052861 1.239597 13.452725 0.401654 0.087920 -0.249400 -0.109140 18.430604 -7.695155 4.541988 -0.424771 12.177088 -43.773541 22.558422 -20.066039 52.370627 -2.061199 -9.855325 0.859612 -0.030840 0.805650 0.580100 -3.363359 -3.728867 -9.209360 7.003572 -8.903102 50.991021 -4.398653 -7.107166 4.509186 -0.082584 -8.277871 -6.175613 -16.393106 0.707652 27.062688 3.475910 -3.240360 -42.938830 -9.501953 -11.304955 -1.822077 17.126451 -8.940943 -9.798914 83.850200 -51.330925 -43.003639 -3.847177 1.714920 1.302960 0.050410 0.301000 0.304170 9.766410 14.696701 4.080517 -2.208483 -5.231182 -14.389208 -33.754107 80.062889 -25.337002 1.446585 -0.610857 -0.598390 0.870930 0.514120 -0.036350 
-0.801910 16.289920 -0.476200 0.497425 -4.343674 -9.658916 -15.640449 11.602855 4.070907 -7.588636 -8.231987 -1.437610 -31.294958 26.614652 48.329147 1.319477 13.937665 0.243744 0.110100 -0.232950 -0.095430 18.362278 -7.278970 4.767226 -1.306573 13.623905 -45.447446 25.071306 -22.300216 54.895123 -2.290636 -10.756326 0.608196 0.004240 0.810620 0.576910 -3.120964 -4.255634 -9.351251 5.924450 -8.178052 52.755262 -2.515544 -6.966100 3.815015 -0.150536 -7.700481 -5.356609 -15.236315 0.684846 27.314022 3.773220 -3.251570 -41.734110 -10.449969 -11.190738 -1.699056 20.186697 -5.552574 -9.386711 82.310583 -48.778940 -39.329819 -3.929626 1.853776 1.297690 0.064410 0.280750 0.298950 10.937534 14.868383 2.599097 -7.855336 -2.412957 -13.964027 -42.622903 76.668773 -28.333807 1.409379 -0.436865 -0.612990 0.872540 0.521680 -0.051850 
-0.794330 16.137220 -0.472700 0.825708 -4.471909 -10.303359 -15.780732 11.672845 4.098765 -7.706516 -8.601302 -1.653389 -31.947317 27.813958 49.665197 1.414916 14.246453 0.133337 0.198410 -0.120290 -0.041500 18.259305 -6.878682 4.893799 -3.005286 14.140700 -46.867678 27.528442 -24.300716 56.475589 -2.496806 -11.465588 0.401757 0.068490 0.762500 0.586110 -2.783475 -4.988191 -9.459875 3.771952 -6.934636 54.181725 -0.108155 -6.860327 3.660430 -0.368296 -7.395864 -4.743533 -14.715020 0.948358 27.360904 3.547010 -3.098410 -41.215520 -11.075604 -10.874678 -1.625641 21.310382 -3.965182 -9.160414 80.737060 -46.834037 -36.541301 -3.949448 1.998187 1.272260 0.051010 0.304150 0.313500 12.116477 15.122708 1.513027 -11.351488 1.559844 -13.974073 -50.155474 71.240409 -29.135346 1.383821 -0.359888 -0.569410 0.839410 0.469560 -0.048420 
-0.792570 16.013840 -0.445750 0.932773 -6.719631 -9.901654 -15.857563 11.645133 4.057589 -7.758894 -8.320717 -2.665023 -32.736755 28.492934 49.440208 1.508522 14.229283 0.140073 0.263250 -0.005520 -0.023500 18.218845 -6.585548 5.103272 -3.169837 15.758374 -48.677614 28.402321 -25.270124 58.515060 -2.647192 -12.007715 0.285777 0.109830 0.717600 0.591480 -2.641511 -5.269228 -9.555514 2.723656 -5.518649 54.194309 1.023082 -5.949996 3.377598 -0.343832 -7.112816 -4.650383 -14.098540 1.396393 27.050033 2.342060 -2.617660 -39.577150 -11.616587 -10.506341 -1.443247 20.959231 -2.933049 -8.819413 80.270665 -46.209519 -35.502620 -3.933136 2.103813 1.198650 0.062190 0.316760 0.344160 12.575521 15.317517 1.240060 -11.854408 2.701739 -14.161496 -59.765737 69.270491 -33.638300 1.288757 -0.177318 -0.500090 0.772050 0.390800 -0.021050 
-0.783860 15.979880 -0.394180 0.610706 -7.616394 -11.227847 -15.836226 11.714263 4.038325 -7.937020 -7.957249 -1.074207 -31.934525 28.069161 49.321814 1.593291 14.148359 0.232408 0.134700 -0.144250 -0.103530 18.219072 -6.682761 5.057976 -2.956290 15.608355 -47.059839 29.581772 -26.169855 58.555402 -2.665528 -12.207020 0.289132 0.009580 0.773750 0.558090 -2.678409 -5.222079 -9.559872 3.147119 -5.617576 55.753547 0.755960 -5.966247 3.360894 -0.083311 -6.921084 -5.802023 -14.166501 1.706637 28.494382 2.242370 -2.636090 -36.268960 -11.808939 -12.108557 -0.637563 19.497090 -1.641935 -9.222916 78.996837 -47.434759 -35.581807 -3.954200 2.046703 1.147160 0.098680 0.263380 0.332150 12.327397 16.586448 2.656346 -8.269651 1.186947 -15.122182 -71.587879 67.684468 -40.848921 1.116567 0.294903 -0.519420 0.766910 0.417660 0.001060 
-0.780250 15.991270 -0.315550 0.249084 -9.746151 -11.319934 -15.851255 11.843507 3.983129 -8.019784 -7.193234 -0.181220 -31.604056 27.156085 47.575371 1.543688 13.847242 0.351499 0.029450 -0.272270 -0.179740 18.196386 -6.689623 5.054212 -1.680091 16.176216 -45.816426 29.090635 -26.029254 59.124762 -2.651149 -12.233941 0.317795 -0.065600 0.833350 0.541900 -2.638203 -5.373249 -9.557365 2.828402 -5.270325 55.231899 1.293722 -5.798203 3.834266 -0.101537 -7.573232 -7.027949 -15.760002 2.656168 29.579028 2.312850 -2.678080 -34.517400 -10.927706 -12.571896 0.474383 14.516363 0.154530 -9.496802 81.059343 -51.132048 -40.309937 -3.919633 1.875020 1.140200 0.122670 0.222170 0.319920 11.526317 17.823599 3.561316 -3.933928 2.875904 -16.051433 -76.612124 67.519265 -45.114941 0.975212 0.656160 -0.553730 0.790860 0.474350 0.010410 
-0.788520 16.064580 -0.234060 -0.381986 -13.421417 -11.583930 -15.838421 12.005258 3.884828 -7.787020 -5.562101 1.039881 -31.575263 26.052635 44.443771 1.550046 13.241931 0.556477 -0.037370 -0.308310 -0.266850 18.191646 -6.792211 5.055544 1.035380 17.364163 -43.050625 27.433743 -24.801116 59.474963 -2.610727 -11.996825 0.432895 -0.142820 0.829760 0.545170 -2.661985 -5.338881 -9.535295 2.619341 -4.610964 55.138506 1.114553 -5.158325 3.691205 0.326251 -8.156109 -8.544758 -17.388649 4.231836 31.090186 2.019700 -1.852780 -33.309150 -10.995177 -13.720331 2.004414 9.508424 2.834730 -10.236047 84.279602 -53.122903 -44.979407 -3.861060 1.804494 1.101830 0.117750 0.236900 0.336270 10.836822 19.911128 4.596135 0.235675 3.643465 -17.107811 -80.110559 70.495289 -50.500937 0.810122 1.272434 -0.502610 0.741020 0.465470 0.059350 
-0.807560 16.196130 -0.113930 -0.536064 -15.550218 -11.612878 -15.817119 12.225918 3.799309 -7.993964 -3.654198 2.656225 -29.917537 24.656190 42.266227 1.631301 12.553642 0.773462 -0.075610 -0.285750 -0.364010 18.175654 -6.975264 5.032378 2.467729 17.741640 -39.968255 26.370324 -23.385795 58.374711 -2.517112 -11.558340 0.607296 -0.225680 0.782050 0.565750 -2.646161 -5.286552 -9.518229 3.205654 -3.447008 54.132717 0.857118 -3.454191 1.906880 1.118185 -7.916980 -9.756226 -18.059240 5.018581 34.315507 2.561170 -1.277080 -30.282930 -13.175839 -15.711564 3.424643 5.054805 2.610892 -10.588734 87.435307 -56.942614 -50.896697 -3.758100 1.693856 1.021610 0.103480 0.278400 0.373190 11.594371 22.612372 5.355687 3.710363 -0.835779 -19.660454 -71.180917 80.378893 -51.190939 0.811160 1.661502 -0.380660 0.614410 0.408620 0.136510 
-0.822910 16.360030 0.015570 -1.034761 -16.464334 -11.821254 -15.773525 12.433646 3.774074 -8.099604 -2.507393 4.480960 -27.548373 22.996281 40.932022 1.669451 11.920157 0.940654 -0.031110 -0.196120 -0.350390 18.166704 -7.277119 4.875032 4.025379 16.830220 -36.298901 24.918190 -21.947883 56.654760 -2.415772 -10.997961 0.781125 -0.260930 0.678060 0.608410 -2.656639 -5.150096 -9.455229 4.201070 -3.431760 52.283596 -0.082665 -2.769529 2.378948 1.853562 -6.736536 -11.489966 -16.792303 5.400846 38.513387 1.466110 -0.272800 -27.596510 -14.314701 -17.824565 4.645243 0.806110 3.071824 -11.121037 88.828800 -63.275854 -57.810587 -3.564276 1.379476 0.963170 0.072830 0.360420 0.404140 11.168491 24.178282 7.182235 8.733873 -3.089044 -20.916463 -51.492960 85.809958 -44.040549 1.334050 0.309113 -0.244710 0.476480 0.313520 0.180770 
-0.846420 16.552470 0.160500 -1.300545 -17.329180 -11.702890 -15.704803 12.628383 3.742387 -7.920319 -1.234899 6.081477 -25.420291 21.393813 39.056415 1.570091 11.351504 1.115606 -0.049320 -0.203110 -0.369250 18.181465 -7.606925 4.718290 5.449815 15.877103 -32.816556 22.748952 -19.944479 54.574491 -2.232873 -10.265430 1.002468 -0.285530 0.677020 0.599920 -2.736817 -4.946165 -9.353134 5.277856 -3.645490 49.416007 -1.073328 -2.358578 3.681615 2.118072 -6.449909 -13.345042 -16.788231 6.054882 40.760410 0.925240 0.211470 -25.312910 -14.774676 -18.262104 5.712397 -3.983231 4.355957 -10.646774 93.058656 -72.268316 -71.469593 -3.377390 0.137808 0.959910 0.072270 0.376860 0.420710 10.938171 24.482545 9.565743 13.773290 -2.675051 -19.126210 -12.882733 86.907646 -15.920935 1.659551 -1.059049 -0.235670 0.470860 0.296920 0.197630 
-0.887880 16.749470 0.312460 -1.700920 -15.523365 -10.081196 -15.546641 12.629382 3.692304 -7.634359 -1.133710 6.095685 -22.248631 19.590079 38.974156 1.443306 10.877336 1.248507 -0.021940 -0.138710 -0.384840 18.278529 -8.107449 4.521041 6.317689 13.983655 -31.220601 20.465589 -18.024509 51.768608 -1.979644 -9.465636 1.227173 -0.232230 0.707100 0.576880 -3.079320 -4.265860 -9.126538 7.696212 -5.119262 42.819446 -2.753024 -3.091453 6.465511 1.926811 -6.342022 -13.925341 -16.645282 6.283276 40.847329 1.521920 -0.100060 -20.517290 -12.536821 -18.749319 5.303635 -12.329947 2.982661 -14.361595 59.726163 -86.758432 -57.841803 -3.344758 1.440448 0.873490 0.117730 0.340110 0.452390 9.125393 23.526806 11.353397 22.058385 -1.564483 -17.282857 23.440849 85.550379 12.756074 1.791182 -1.510876 -0.221850 0.468190 0.263360 0.229960 
